<?xml version="1.0"?>
<svg version="1.1" xmlns="http://www.w3.org/2000/svg" width="400px" height="200px" style="border: dashed 2px #aaa"><path fill="#" d="M69.099609375,106.603515625q0,4.935546875-2.8095703125,7.560546875t-8.1142578125,2.625l-5.66015625,0l0-19.98828125l6.275390625,0q4.89453125,0,7.6015625,2.583984375t2.70703125,7.21875z M64.697265625,106.712890625q0-6.439453125-5.6875-6.439453125l-2.255859375,0l0,13.015625l1.818359375,0q6.125,0,6.125-6.576171875z M93.30935546875,106.767578125q0,4.962890625-2.4609375,7.62890625t-7.0546875,2.666015625t-7.0546875-2.666015625t-2.4609375-7.65625t2.4677734375-7.6220703125t7.0751953125-2.6318359375t7.0478515625,2.65234375t2.4404296875,7.62890625z M78.72146484375,106.767578125q0,3.349609375,1.271484375,5.044921875t3.80078125,1.6953125q5.072265625,0,5.072265625-6.740234375q0-6.75390625-5.044921875-6.75390625q-2.529296875,0-3.814453125,1.7021484375t-1.28515625,5.0517578125z M99.3765234375,116.7890625l0-19.98828125l4.23828125,0l0,19.98828125l-4.23828125,0z M128.30306640625,116.7890625l-5.38671875,0l-8.6953125-15.12109375l-0.123046875,0q0.259765625,4.005859375,0.259765625,5.71484375l0,9.40625l-3.787109375,0l0-19.98828125l5.345703125,0l8.681640625,14.970703125l0.095703125,0q-0.205078125-3.896484375-0.205078125-5.509765625l0-9.4609375l3.814453125,0l0,19.98828125z M151.33703125,116.7890625l-4.8125,0l-5.236328125-8.421875l-1.791015625,1.28515625l0,7.13671875l-4.23828125,0l0-19.98828125l4.23828125,0l0,9.146484375l1.66796875-2.3515625l5.4140625-6.794921875l4.703125,0l-6.97265625,8.845703125z M167.28896484375,116.7890625l-11.51171875,0l0-19.98828125l11.51171875,0l0,3.47265625l-7.2734375,0l0,4.388671875l6.767578125,0l0,3.47265625l-6.767578125,0l0,5.154296875l7.2734375,0l0,3.5z M184.8951953125,116.7890625l-11.51171875,0l0-19.98828125l11.51171875,0l0,3.47265625l-7.2734375,0l0,4.388671875l6.767578125,0l0,3.47265625l-6.767578125,0l0,5.154296875l7.2734375,0l0,3.5z"/><path fill="#" d=""/></svg>
